<mxfile host="Electron" modified="2024-06-16T13:35:26.806Z" agent="Mozilla/5.0 (Windows NT 10.0; Win64; x64) AppleWebKit/537.36 (KHTML, like Gecko) draw.io/21.6.8 Chrome/114.0.5735.289 Electron/25.5.0 Safari/537.36" etag="6pjZ7X6-4Q1sVL9MkKom" version="21.6.8" type="device">
  <diagram name="Страница — 1" id="SGxZ7JTuAKPndqNbuxwk">
    <mxGraphModel dx="1147" dy="669" grid="1" gridSize="10" guides="1" tooltips="1" connect="1" arrows="1" fold="1" page="1" pageScale="1" pageWidth="827" pageHeight="1169" math="0" shadow="0">
      <root>
        <mxCell id="0" />
        <mxCell id="1" parent="0" />
        <mxCell id="wJRVuUg3xGgmKM1oo_Ec-31" value="" style="group" vertex="1" connectable="0" parent="1">
          <mxGeometry x="150" y="285" width="210" height="300" as="geometry" />
        </mxCell>
        <mxCell id="wJRVuUg3xGgmKM1oo_Ec-2" value="User" style="swimlane;fontStyle=0;childLayout=stackLayout;horizontal=1;startSize=30;horizontalStack=0;resizeParent=1;resizeParentMax=0;resizeLast=0;collapsible=1;marginBottom=0;whiteSpace=wrap;html=1;" vertex="1" parent="wJRVuUg3xGgmKM1oo_Ec-31">
          <mxGeometry x="50" width="160" height="300" as="geometry" />
        </mxCell>
        <mxCell id="wJRVuUg3xGgmKM1oo_Ec-3" value="UserID - number" style="text;strokeColor=none;fillColor=none;align=left;verticalAlign=middle;spacingLeft=4;spacingRight=4;overflow=hidden;points=[[0,0.5],[1,0.5]];portConstraint=eastwest;rotatable=0;whiteSpace=wrap;html=1;" vertex="1" parent="wJRVuUg3xGgmKM1oo_Ec-2">
          <mxGeometry y="30" width="160" height="30" as="geometry" />
        </mxCell>
        <mxCell id="wJRVuUg3xGgmKM1oo_Ec-11" value="Email - string" style="text;strokeColor=none;fillColor=none;align=left;verticalAlign=middle;spacingLeft=4;spacingRight=4;overflow=hidden;points=[[0,0.5],[1,0.5]];portConstraint=eastwest;rotatable=0;whiteSpace=wrap;html=1;" vertex="1" parent="wJRVuUg3xGgmKM1oo_Ec-2">
          <mxGeometry y="60" width="160" height="30" as="geometry" />
        </mxCell>
        <mxCell id="wJRVuUg3xGgmKM1oo_Ec-12" value="Password- string" style="text;strokeColor=none;fillColor=none;align=left;verticalAlign=middle;spacingLeft=4;spacingRight=4;overflow=hidden;points=[[0,0.5],[1,0.5]];portConstraint=eastwest;rotatable=0;whiteSpace=wrap;html=1;" vertex="1" parent="wJRVuUg3xGgmKM1oo_Ec-2">
          <mxGeometry y="90" width="160" height="30" as="geometry" />
        </mxCell>
        <mxCell id="wJRVuUg3xGgmKM1oo_Ec-4" value="Name - string" style="text;strokeColor=none;fillColor=none;align=left;verticalAlign=middle;spacingLeft=4;spacingRight=4;overflow=hidden;points=[[0,0.5],[1,0.5]];portConstraint=eastwest;rotatable=0;whiteSpace=wrap;html=1;" vertex="1" parent="wJRVuUg3xGgmKM1oo_Ec-2">
          <mxGeometry y="120" width="160" height="30" as="geometry" />
        </mxCell>
        <mxCell id="wJRVuUg3xGgmKM1oo_Ec-8" value="Surname - string" style="text;strokeColor=none;fillColor=none;align=left;verticalAlign=middle;spacingLeft=4;spacingRight=4;overflow=hidden;points=[[0,0.5],[1,0.5]];portConstraint=eastwest;rotatable=0;whiteSpace=wrap;html=1;" vertex="1" parent="wJRVuUg3xGgmKM1oo_Ec-2">
          <mxGeometry y="150" width="160" height="30" as="geometry" />
        </mxCell>
        <mxCell id="wJRVuUg3xGgmKM1oo_Ec-10" value="FavoriteCompany - string[]" style="text;strokeColor=none;fillColor=none;align=left;verticalAlign=middle;spacingLeft=4;spacingRight=4;overflow=hidden;points=[[0,0.5],[1,0.5]];portConstraint=eastwest;rotatable=0;whiteSpace=wrap;html=1;" vertex="1" parent="wJRVuUg3xGgmKM1oo_Ec-2">
          <mxGeometry y="180" width="160" height="30" as="geometry" />
        </mxCell>
        <mxCell id="wJRVuUg3xGgmKM1oo_Ec-9" value="FavoriteProjects - string []" style="text;strokeColor=none;fillColor=none;align=left;verticalAlign=middle;spacingLeft=4;spacingRight=4;overflow=hidden;points=[[0,0.5],[1,0.5]];portConstraint=eastwest;rotatable=0;whiteSpace=wrap;html=1;" vertex="1" parent="wJRVuUg3xGgmKM1oo_Ec-2">
          <mxGeometry y="210" width="160" height="30" as="geometry" />
        </mxCell>
        <mxCell id="wJRVuUg3xGgmKM1oo_Ec-5" value="IsCompany - boolean" style="text;strokeColor=none;fillColor=none;align=left;verticalAlign=middle;spacingLeft=4;spacingRight=4;overflow=hidden;points=[[0,0.5],[1,0.5]];portConstraint=eastwest;rotatable=0;whiteSpace=wrap;html=1;" vertex="1" parent="wJRVuUg3xGgmKM1oo_Ec-2">
          <mxGeometry y="240" width="160" height="30" as="geometry" />
        </mxCell>
        <mxCell id="wJRVuUg3xGgmKM1oo_Ec-13" value="CompanyID - string" style="text;strokeColor=none;fillColor=none;align=left;verticalAlign=middle;spacingLeft=4;spacingRight=4;overflow=hidden;points=[[0,0.5],[1,0.5]];portConstraint=eastwest;rotatable=0;whiteSpace=wrap;html=1;" vertex="1" parent="wJRVuUg3xGgmKM1oo_Ec-2">
          <mxGeometry y="270" width="160" height="30" as="geometry" />
        </mxCell>
        <mxCell id="wJRVuUg3xGgmKM1oo_Ec-29" value="" style="rounded=0;whiteSpace=wrap;html=1;" vertex="1" parent="wJRVuUg3xGgmKM1oo_Ec-31">
          <mxGeometry width="50" height="300" as="geometry" />
        </mxCell>
        <mxCell id="wJRVuUg3xGgmKM1oo_Ec-30" value="PK" style="text;html=1;strokeColor=none;fillColor=none;align=center;verticalAlign=middle;whiteSpace=wrap;rounded=0;" vertex="1" parent="wJRVuUg3xGgmKM1oo_Ec-31">
          <mxGeometry x="5" y="35" width="45" height="20" as="geometry" />
        </mxCell>
        <mxCell id="wJRVuUg3xGgmKM1oo_Ec-45" value="FK" style="text;html=1;strokeColor=none;fillColor=none;align=center;verticalAlign=middle;whiteSpace=wrap;rounded=0;" vertex="1" parent="wJRVuUg3xGgmKM1oo_Ec-31">
          <mxGeometry x="5" y="275" width="45" height="20" as="geometry" />
        </mxCell>
        <mxCell id="wJRVuUg3xGgmKM1oo_Ec-83" value="FK" style="text;html=1;strokeColor=none;fillColor=none;align=center;verticalAlign=middle;whiteSpace=wrap;rounded=0;" vertex="1" parent="wJRVuUg3xGgmKM1oo_Ec-31">
          <mxGeometry x="2.5" y="215" width="45" height="20" as="geometry" />
        </mxCell>
        <mxCell id="wJRVuUg3xGgmKM1oo_Ec-84" value="FK" style="text;html=1;strokeColor=none;fillColor=none;align=center;verticalAlign=middle;whiteSpace=wrap;rounded=0;" vertex="1" parent="wJRVuUg3xGgmKM1oo_Ec-31">
          <mxGeometry x="5" y="195" width="45" height="20" as="geometry" />
        </mxCell>
        <mxCell id="wJRVuUg3xGgmKM1oo_Ec-32" value="" style="group" vertex="1" connectable="0" parent="1">
          <mxGeometry x="413.5" y="285" width="210" height="300" as="geometry" />
        </mxCell>
        <mxCell id="wJRVuUg3xGgmKM1oo_Ec-33" value="Company" style="swimlane;fontStyle=0;childLayout=stackLayout;horizontal=1;startSize=30;horizontalStack=0;resizeParent=1;resizeParentMax=0;resizeLast=0;collapsible=1;marginBottom=0;whiteSpace=wrap;html=1;" vertex="1" parent="wJRVuUg3xGgmKM1oo_Ec-32">
          <mxGeometry x="50" width="160" height="210" as="geometry" />
        </mxCell>
        <mxCell id="wJRVuUg3xGgmKM1oo_Ec-34" value="ComapnyID - string" style="text;strokeColor=none;fillColor=none;align=left;verticalAlign=middle;spacingLeft=4;spacingRight=4;overflow=hidden;points=[[0,0.5],[1,0.5]];portConstraint=eastwest;rotatable=0;whiteSpace=wrap;html=1;" vertex="1" parent="wJRVuUg3xGgmKM1oo_Ec-33">
          <mxGeometry y="30" width="160" height="30" as="geometry" />
        </mxCell>
        <mxCell id="wJRVuUg3xGgmKM1oo_Ec-35" value="CompanyName - string" style="text;strokeColor=none;fillColor=none;align=left;verticalAlign=middle;spacingLeft=4;spacingRight=4;overflow=hidden;points=[[0,0.5],[1,0.5]];portConstraint=eastwest;rotatable=0;whiteSpace=wrap;html=1;" vertex="1" parent="wJRVuUg3xGgmKM1oo_Ec-33">
          <mxGeometry y="60" width="160" height="30" as="geometry" />
        </mxCell>
        <mxCell id="wJRVuUg3xGgmKM1oo_Ec-76" value="CompanyDescription - string" style="text;strokeColor=none;fillColor=none;align=left;verticalAlign=middle;spacingLeft=4;spacingRight=4;overflow=hidden;points=[[0,0.5],[1,0.5]];portConstraint=eastwest;rotatable=0;whiteSpace=wrap;html=1;" vertex="1" parent="wJRVuUg3xGgmKM1oo_Ec-33">
          <mxGeometry y="90" width="160" height="30" as="geometry" />
        </mxCell>
        <mxCell id="wJRVuUg3xGgmKM1oo_Ec-77" value="CompanyImage - string" style="text;strokeColor=none;fillColor=none;align=left;verticalAlign=middle;spacingLeft=4;spacingRight=4;overflow=hidden;points=[[0,0.5],[1,0.5]];portConstraint=eastwest;rotatable=0;whiteSpace=wrap;html=1;" vertex="1" parent="wJRVuUg3xGgmKM1oo_Ec-33">
          <mxGeometry y="120" width="160" height="30" as="geometry" />
        </mxCell>
        <mxCell id="wJRVuUg3xGgmKM1oo_Ec-36" value="ProjectsID - string []" style="text;strokeColor=none;fillColor=none;align=left;verticalAlign=middle;spacingLeft=4;spacingRight=4;overflow=hidden;points=[[0,0.5],[1,0.5]];portConstraint=eastwest;rotatable=0;whiteSpace=wrap;html=1;" vertex="1" parent="wJRVuUg3xGgmKM1oo_Ec-33">
          <mxGeometry y="150" width="160" height="30" as="geometry" />
        </mxCell>
        <mxCell id="wJRVuUg3xGgmKM1oo_Ec-37" value="CompanyAdminID - number" style="text;strokeColor=none;fillColor=none;align=left;verticalAlign=middle;spacingLeft=4;spacingRight=4;overflow=hidden;points=[[0,0.5],[1,0.5]];portConstraint=eastwest;rotatable=0;whiteSpace=wrap;html=1;" vertex="1" parent="wJRVuUg3xGgmKM1oo_Ec-33">
          <mxGeometry y="180" width="160" height="30" as="geometry" />
        </mxCell>
        <mxCell id="wJRVuUg3xGgmKM1oo_Ec-43" value="" style="rounded=0;whiteSpace=wrap;html=1;" vertex="1" parent="wJRVuUg3xGgmKM1oo_Ec-32">
          <mxGeometry width="50" height="210" as="geometry" />
        </mxCell>
        <mxCell id="wJRVuUg3xGgmKM1oo_Ec-44" value="PK" style="text;html=1;strokeColor=none;fillColor=none;align=center;verticalAlign=middle;whiteSpace=wrap;rounded=0;" vertex="1" parent="wJRVuUg3xGgmKM1oo_Ec-32">
          <mxGeometry x="5" y="35" width="45" height="20" as="geometry" />
        </mxCell>
        <mxCell id="wJRVuUg3xGgmKM1oo_Ec-60" value="FK" style="text;html=1;strokeColor=none;fillColor=none;align=center;verticalAlign=middle;whiteSpace=wrap;rounded=0;" vertex="1" parent="wJRVuUg3xGgmKM1oo_Ec-32">
          <mxGeometry x="5" y="185" width="45" height="20" as="geometry" />
        </mxCell>
        <mxCell id="wJRVuUg3xGgmKM1oo_Ec-82" value="FK" style="text;html=1;strokeColor=none;fillColor=none;align=center;verticalAlign=middle;whiteSpace=wrap;rounded=0;" vertex="1" parent="wJRVuUg3xGgmKM1oo_Ec-32">
          <mxGeometry x="5" y="155" width="45" height="20" as="geometry" />
        </mxCell>
        <mxCell id="wJRVuUg3xGgmKM1oo_Ec-65" value="" style="group" vertex="1" connectable="0" parent="1">
          <mxGeometry x="730" y="470" width="210" height="300" as="geometry" />
        </mxCell>
        <mxCell id="wJRVuUg3xGgmKM1oo_Ec-66" value="Projects" style="swimlane;fontStyle=0;childLayout=stackLayout;horizontal=1;startSize=30;horizontalStack=0;resizeParent=1;resizeParentMax=0;resizeLast=0;collapsible=1;marginBottom=0;whiteSpace=wrap;html=1;" vertex="1" parent="wJRVuUg3xGgmKM1oo_Ec-65">
          <mxGeometry x="50" width="160" height="210" as="geometry" />
        </mxCell>
        <mxCell id="wJRVuUg3xGgmKM1oo_Ec-67" value="ProjectID - string" style="text;strokeColor=none;fillColor=none;align=left;verticalAlign=middle;spacingLeft=4;spacingRight=4;overflow=hidden;points=[[0,0.5],[1,0.5]];portConstraint=eastwest;rotatable=0;whiteSpace=wrap;html=1;" vertex="1" parent="wJRVuUg3xGgmKM1oo_Ec-66">
          <mxGeometry y="30" width="160" height="30" as="geometry" />
        </mxCell>
        <mxCell id="wJRVuUg3xGgmKM1oo_Ec-68" value="ProjectName - string" style="text;strokeColor=none;fillColor=none;align=left;verticalAlign=middle;spacingLeft=4;spacingRight=4;overflow=hidden;points=[[0,0.5],[1,0.5]];portConstraint=eastwest;rotatable=0;whiteSpace=wrap;html=1;" vertex="1" parent="wJRVuUg3xGgmKM1oo_Ec-66">
          <mxGeometry y="60" width="160" height="30" as="geometry" />
        </mxCell>
        <mxCell id="wJRVuUg3xGgmKM1oo_Ec-75" value="ProjectDescription - string" style="text;strokeColor=none;fillColor=none;align=left;verticalAlign=middle;spacingLeft=4;spacingRight=4;overflow=hidden;points=[[0,0.5],[1,0.5]];portConstraint=eastwest;rotatable=0;whiteSpace=wrap;html=1;" vertex="1" parent="wJRVuUg3xGgmKM1oo_Ec-66">
          <mxGeometry y="90" width="160" height="30" as="geometry" />
        </mxCell>
        <mxCell id="wJRVuUg3xGgmKM1oo_Ec-74" value="ProjectImage - string" style="text;strokeColor=none;fillColor=none;align=left;verticalAlign=middle;spacingLeft=4;spacingRight=4;overflow=hidden;points=[[0,0.5],[1,0.5]];portConstraint=eastwest;rotatable=0;whiteSpace=wrap;html=1;" vertex="1" parent="wJRVuUg3xGgmKM1oo_Ec-66">
          <mxGeometry y="120" width="160" height="30" as="geometry" />
        </mxCell>
        <mxCell id="wJRVuUg3xGgmKM1oo_Ec-69" value="LayoutsSales - string []" style="text;strokeColor=none;fillColor=none;align=left;verticalAlign=middle;spacingLeft=4;spacingRight=4;overflow=hidden;points=[[0,0.5],[1,0.5]];portConstraint=eastwest;rotatable=0;whiteSpace=wrap;html=1;" vertex="1" parent="wJRVuUg3xGgmKM1oo_Ec-66">
          <mxGeometry y="150" width="160" height="30" as="geometry" />
        </mxCell>
        <mxCell id="wJRVuUg3xGgmKM1oo_Ec-70" value="CompanyID - number" style="text;strokeColor=none;fillColor=none;align=left;verticalAlign=middle;spacingLeft=4;spacingRight=4;overflow=hidden;points=[[0,0.5],[1,0.5]];portConstraint=eastwest;rotatable=0;whiteSpace=wrap;html=1;" vertex="1" parent="wJRVuUg3xGgmKM1oo_Ec-66">
          <mxGeometry y="180" width="160" height="30" as="geometry" />
        </mxCell>
        <mxCell id="wJRVuUg3xGgmKM1oo_Ec-71" value="" style="rounded=0;whiteSpace=wrap;html=1;" vertex="1" parent="wJRVuUg3xGgmKM1oo_Ec-65">
          <mxGeometry width="50" height="210" as="geometry" />
        </mxCell>
        <mxCell id="wJRVuUg3xGgmKM1oo_Ec-72" value="PK" style="text;html=1;strokeColor=none;fillColor=none;align=center;verticalAlign=middle;whiteSpace=wrap;rounded=0;" vertex="1" parent="wJRVuUg3xGgmKM1oo_Ec-65">
          <mxGeometry x="5" y="35" width="45" height="20" as="geometry" />
        </mxCell>
        <mxCell id="wJRVuUg3xGgmKM1oo_Ec-73" value="FK" style="text;html=1;strokeColor=none;fillColor=none;align=center;verticalAlign=middle;whiteSpace=wrap;rounded=0;" vertex="1" parent="wJRVuUg3xGgmKM1oo_Ec-65">
          <mxGeometry y="190" width="45" height="20" as="geometry" />
        </mxCell>
        <mxCell id="wJRVuUg3xGgmKM1oo_Ec-85" value="" style="curved=1;endArrow=classic;html=1;rounded=0;exitX=1;exitY=0.5;exitDx=0;exitDy=0;entryX=0;entryY=0.75;entryDx=0;entryDy=0;" edge="1" parent="1" source="wJRVuUg3xGgmKM1oo_Ec-10">
          <mxGeometry width="50" height="50" relative="1" as="geometry">
            <mxPoint x="370" y="580" as="sourcePoint" />
            <mxPoint x="429" y="345" as="targetPoint" />
            <Array as="points">
              <mxPoint x="400" y="370" />
            </Array>
          </mxGeometry>
        </mxCell>
        <mxCell id="wJRVuUg3xGgmKM1oo_Ec-113" value="Layouts" style="shape=table;startSize=30;container=1;collapsible=1;childLayout=tableLayout;fixedRows=1;rowLines=0;fontStyle=1;align=center;resizeLast=1;html=1;" vertex="1" parent="1">
          <mxGeometry x="190" y="670" width="180" height="250" as="geometry">
            <mxRectangle x="190" y="670" width="90" height="30" as="alternateBounds" />
          </mxGeometry>
        </mxCell>
        <mxCell id="wJRVuUg3xGgmKM1oo_Ec-114" value="" style="shape=tableRow;horizontal=0;startSize=0;swimlaneHead=0;swimlaneBody=0;fillColor=none;collapsible=0;dropTarget=0;points=[[0,0.5],[1,0.5]];portConstraint=eastwest;top=0;left=0;right=0;bottom=1;" vertex="1" parent="wJRVuUg3xGgmKM1oo_Ec-113">
          <mxGeometry y="30" width="180" height="30" as="geometry" />
        </mxCell>
        <mxCell id="wJRVuUg3xGgmKM1oo_Ec-115" value="PK" style="shape=partialRectangle;connectable=0;fillColor=none;top=0;left=0;bottom=0;right=0;fontStyle=1;overflow=hidden;whiteSpace=wrap;html=1;" vertex="1" parent="wJRVuUg3xGgmKM1oo_Ec-114">
          <mxGeometry width="30" height="30" as="geometry">
            <mxRectangle width="30" height="30" as="alternateBounds" />
          </mxGeometry>
        </mxCell>
        <mxCell id="wJRVuUg3xGgmKM1oo_Ec-116" value="LayoutID - string" style="shape=partialRectangle;connectable=0;fillColor=none;top=0;left=0;bottom=0;right=0;align=left;spacingLeft=6;fontStyle=5;overflow=hidden;whiteSpace=wrap;html=1;" vertex="1" parent="wJRVuUg3xGgmKM1oo_Ec-114">
          <mxGeometry x="30" width="150" height="30" as="geometry">
            <mxRectangle width="150" height="30" as="alternateBounds" />
          </mxGeometry>
        </mxCell>
        <mxCell id="wJRVuUg3xGgmKM1oo_Ec-117" value="" style="shape=tableRow;horizontal=0;startSize=0;swimlaneHead=0;swimlaneBody=0;fillColor=none;collapsible=0;dropTarget=0;points=[[0,0.5],[1,0.5]];portConstraint=eastwest;top=0;left=0;right=0;bottom=0;" vertex="1" parent="wJRVuUg3xGgmKM1oo_Ec-113">
          <mxGeometry y="60" width="180" height="30" as="geometry" />
        </mxCell>
        <mxCell id="wJRVuUg3xGgmKM1oo_Ec-118" value="FK" style="shape=partialRectangle;connectable=0;fillColor=none;top=0;left=0;bottom=0;right=0;editable=1;overflow=hidden;whiteSpace=wrap;html=1;" vertex="1" parent="wJRVuUg3xGgmKM1oo_Ec-117">
          <mxGeometry width="30" height="30" as="geometry">
            <mxRectangle width="30" height="30" as="alternateBounds" />
          </mxGeometry>
        </mxCell>
        <mxCell id="wJRVuUg3xGgmKM1oo_Ec-119" value="ProjectID - string" style="shape=partialRectangle;connectable=0;fillColor=none;top=0;left=0;bottom=0;right=0;align=left;spacingLeft=6;overflow=hidden;whiteSpace=wrap;html=1;" vertex="1" parent="wJRVuUg3xGgmKM1oo_Ec-117">
          <mxGeometry x="30" width="150" height="30" as="geometry">
            <mxRectangle width="150" height="30" as="alternateBounds" />
          </mxGeometry>
        </mxCell>
        <mxCell id="wJRVuUg3xGgmKM1oo_Ec-120" value="" style="shape=tableRow;horizontal=0;startSize=0;swimlaneHead=0;swimlaneBody=0;fillColor=none;collapsible=0;dropTarget=0;points=[[0,0.5],[1,0.5]];portConstraint=eastwest;top=0;left=0;right=0;bottom=0;" vertex="1" parent="wJRVuUg3xGgmKM1oo_Ec-113">
          <mxGeometry y="90" width="180" height="30" as="geometry" />
        </mxCell>
        <mxCell id="wJRVuUg3xGgmKM1oo_Ec-121" value="" style="shape=partialRectangle;connectable=0;fillColor=none;top=0;left=0;bottom=0;right=0;editable=1;overflow=hidden;whiteSpace=wrap;html=1;" vertex="1" parent="wJRVuUg3xGgmKM1oo_Ec-120">
          <mxGeometry width="30" height="30" as="geometry">
            <mxRectangle width="30" height="30" as="alternateBounds" />
          </mxGeometry>
        </mxCell>
        <mxCell id="wJRVuUg3xGgmKM1oo_Ec-122" value="LayoutType - string" style="shape=partialRectangle;connectable=0;fillColor=none;top=0;left=0;bottom=0;right=0;align=left;spacingLeft=6;overflow=hidden;whiteSpace=wrap;html=1;" vertex="1" parent="wJRVuUg3xGgmKM1oo_Ec-120">
          <mxGeometry x="30" width="150" height="30" as="geometry">
            <mxRectangle width="150" height="30" as="alternateBounds" />
          </mxGeometry>
        </mxCell>
        <mxCell id="wJRVuUg3xGgmKM1oo_Ec-123" value="" style="shape=tableRow;horizontal=0;startSize=0;swimlaneHead=0;swimlaneBody=0;fillColor=none;collapsible=0;dropTarget=0;points=[[0,0.5],[1,0.5]];portConstraint=eastwest;top=0;left=0;right=0;bottom=0;" vertex="1" parent="wJRVuUg3xGgmKM1oo_Ec-113">
          <mxGeometry y="120" width="180" height="30" as="geometry" />
        </mxCell>
        <mxCell id="wJRVuUg3xGgmKM1oo_Ec-124" value="" style="shape=partialRectangle;connectable=0;fillColor=none;top=0;left=0;bottom=0;right=0;editable=1;overflow=hidden;whiteSpace=wrap;html=1;" vertex="1" parent="wJRVuUg3xGgmKM1oo_Ec-123">
          <mxGeometry width="30" height="30" as="geometry">
            <mxRectangle width="30" height="30" as="alternateBounds" />
          </mxGeometry>
        </mxCell>
        <mxCell id="wJRVuUg3xGgmKM1oo_Ec-125" value="LayoutImage - string" style="shape=partialRectangle;connectable=0;fillColor=none;top=0;left=0;bottom=0;right=0;align=left;spacingLeft=6;overflow=hidden;whiteSpace=wrap;html=1;" vertex="1" parent="wJRVuUg3xGgmKM1oo_Ec-123">
          <mxGeometry x="30" width="150" height="30" as="geometry">
            <mxRectangle width="150" height="30" as="alternateBounds" />
          </mxGeometry>
        </mxCell>
        <mxCell id="wJRVuUg3xGgmKM1oo_Ec-145" value="" style="shape=tableRow;horizontal=0;startSize=0;swimlaneHead=0;swimlaneBody=0;fillColor=none;collapsible=0;dropTarget=0;points=[[0,0.5],[1,0.5]];portConstraint=eastwest;top=0;left=0;right=0;bottom=0;" vertex="1" parent="1">
          <mxGeometry x="190" y="820" width="180" height="30" as="geometry" />
        </mxCell>
        <mxCell id="wJRVuUg3xGgmKM1oo_Ec-146" value="" style="shape=partialRectangle;connectable=0;fillColor=none;top=0;left=0;bottom=0;right=0;editable=1;overflow=hidden;whiteSpace=wrap;html=1;" vertex="1" parent="wJRVuUg3xGgmKM1oo_Ec-145">
          <mxGeometry width="30" height="30" as="geometry">
            <mxRectangle width="30" height="30" as="alternateBounds" />
          </mxGeometry>
        </mxCell>
        <mxCell id="wJRVuUg3xGgmKM1oo_Ec-147" value="LayoutDescription - string" style="shape=partialRectangle;connectable=0;fillColor=none;top=0;left=0;bottom=0;right=0;align=left;spacingLeft=6;overflow=hidden;whiteSpace=wrap;html=1;" vertex="1" parent="wJRVuUg3xGgmKM1oo_Ec-145">
          <mxGeometry x="30" width="150" height="30" as="geometry">
            <mxRectangle width="150" height="30" as="alternateBounds" />
          </mxGeometry>
        </mxCell>
        <mxCell id="wJRVuUg3xGgmKM1oo_Ec-149" value="" style="shape=tableRow;horizontal=0;startSize=0;swimlaneHead=0;swimlaneBody=0;fillColor=none;collapsible=0;dropTarget=0;points=[[0,0.5],[1,0.5]];portConstraint=eastwest;top=0;left=0;right=0;bottom=0;" vertex="1" parent="1">
          <mxGeometry x="190" y="850" width="180" height="30" as="geometry" />
        </mxCell>
        <mxCell id="wJRVuUg3xGgmKM1oo_Ec-150" value="" style="shape=partialRectangle;connectable=0;fillColor=none;top=0;left=0;bottom=0;right=0;editable=1;overflow=hidden;whiteSpace=wrap;html=1;" vertex="1" parent="wJRVuUg3xGgmKM1oo_Ec-149">
          <mxGeometry width="30" height="30" as="geometry">
            <mxRectangle width="30" height="30" as="alternateBounds" />
          </mxGeometry>
        </mxCell>
        <mxCell id="wJRVuUg3xGgmKM1oo_Ec-151" value="LayoutPrice - number" style="shape=partialRectangle;connectable=0;fillColor=none;top=0;left=0;bottom=0;right=0;align=left;spacingLeft=6;overflow=hidden;whiteSpace=wrap;html=1;" vertex="1" parent="wJRVuUg3xGgmKM1oo_Ec-149">
          <mxGeometry x="30" width="150" height="30" as="geometry">
            <mxRectangle width="150" height="30" as="alternateBounds" />
          </mxGeometry>
        </mxCell>
        <mxCell id="wJRVuUg3xGgmKM1oo_Ec-165" value="" style="shape=tableRow;horizontal=0;startSize=0;swimlaneHead=0;swimlaneBody=0;fillColor=none;collapsible=0;dropTarget=0;points=[[0,0.5],[1,0.5]];portConstraint=eastwest;top=0;left=0;right=0;bottom=0;" vertex="1" parent="1">
          <mxGeometry x="190" y="880" width="180" height="30" as="geometry" />
        </mxCell>
        <mxCell id="wJRVuUg3xGgmKM1oo_Ec-166" value="" style="shape=partialRectangle;connectable=0;fillColor=none;top=0;left=0;bottom=0;right=0;editable=1;overflow=hidden;whiteSpace=wrap;html=1;" vertex="1" parent="wJRVuUg3xGgmKM1oo_Ec-165">
          <mxGeometry width="30" height="30" as="geometry">
            <mxRectangle width="30" height="30" as="alternateBounds" />
          </mxGeometry>
        </mxCell>
        <mxCell id="wJRVuUg3xGgmKM1oo_Ec-167" value="LayoutSize - number" style="shape=partialRectangle;connectable=0;fillColor=none;top=0;left=0;bottom=0;right=0;align=left;spacingLeft=6;overflow=hidden;whiteSpace=wrap;html=1;" vertex="1" parent="wJRVuUg3xGgmKM1oo_Ec-165">
          <mxGeometry x="30" width="150" height="30" as="geometry">
            <mxRectangle width="150" height="30" as="alternateBounds" />
          </mxGeometry>
        </mxCell>
        <mxCell id="wJRVuUg3xGgmKM1oo_Ec-168" value="" style="endArrow=none;html=1;rounded=0;exitX=0.167;exitY=-0.051;exitDx=0;exitDy=0;exitPerimeter=0;" edge="1" parent="1" source="wJRVuUg3xGgmKM1oo_Ec-145">
          <mxGeometry width="50" height="50" relative="1" as="geometry">
            <mxPoint x="250" y="800" as="sourcePoint" />
            <mxPoint x="220" y="920" as="targetPoint" />
          </mxGeometry>
        </mxCell>
        <mxCell id="wJRVuUg3xGgmKM1oo_Ec-171" value="" style="endArrow=classic;html=1;rounded=0;exitX=1;exitY=0.5;exitDx=0;exitDy=0;entryX=-0.029;entryY=0.193;entryDx=0;entryDy=0;entryPerimeter=0;" edge="1" parent="1" source="wJRVuUg3xGgmKM1oo_Ec-9" target="wJRVuUg3xGgmKM1oo_Ec-71">
          <mxGeometry width="50" height="50" relative="1" as="geometry">
            <mxPoint x="450" y="560" as="sourcePoint" />
            <mxPoint x="500" y="510" as="targetPoint" />
          </mxGeometry>
        </mxCell>
        <mxCell id="wJRVuUg3xGgmKM1oo_Ec-172" value="" style="endArrow=classic;html=1;rounded=0;entryX=0;entryY=0.5;entryDx=0;entryDy=0;exitX=1;exitY=0.5;exitDx=0;exitDy=0;" edge="1" parent="1" source="wJRVuUg3xGgmKM1oo_Ec-36" target="wJRVuUg3xGgmKM1oo_Ec-72">
          <mxGeometry width="50" height="50" relative="1" as="geometry">
            <mxPoint x="560" y="560" as="sourcePoint" />
            <mxPoint x="610" y="510" as="targetPoint" />
          </mxGeometry>
        </mxCell>
        <mxCell id="wJRVuUg3xGgmKM1oo_Ec-173" value="" style="endArrow=classic;html=1;rounded=0;entryX=1;entryY=0.5;entryDx=0;entryDy=0;exitX=0;exitY=0.5;exitDx=0;exitDy=0;" edge="1" parent="1" source="wJRVuUg3xGgmKM1oo_Ec-60" target="wJRVuUg3xGgmKM1oo_Ec-3">
          <mxGeometry width="50" height="50" relative="1" as="geometry">
            <mxPoint x="450" y="560" as="sourcePoint" />
            <mxPoint x="500" y="510" as="targetPoint" />
          </mxGeometry>
        </mxCell>
        <mxCell id="wJRVuUg3xGgmKM1oo_Ec-174" value="" style="endArrow=classic;html=1;rounded=0;entryX=1;entryY=0.5;entryDx=0;entryDy=0;exitX=0;exitY=0.5;exitDx=0;exitDy=0;" edge="1" parent="1" source="wJRVuUg3xGgmKM1oo_Ec-73" target="wJRVuUg3xGgmKM1oo_Ec-34">
          <mxGeometry width="50" height="50" relative="1" as="geometry">
            <mxPoint x="634" y="460" as="sourcePoint" />
            <mxPoint x="745" y="525" as="targetPoint" />
          </mxGeometry>
        </mxCell>
        <mxCell id="wJRVuUg3xGgmKM1oo_Ec-175" value="" style="endArrow=classic;html=1;rounded=0;entryX=0;entryY=0.75;entryDx=0;entryDy=0;exitX=1;exitY=0.5;exitDx=0;exitDy=0;" edge="1" parent="1" source="wJRVuUg3xGgmKM1oo_Ec-114" target="wJRVuUg3xGgmKM1oo_Ec-72">
          <mxGeometry width="50" height="50" relative="1" as="geometry">
            <mxPoint x="740" y="680" as="sourcePoint" />
            <mxPoint x="634" y="340" as="targetPoint" />
          </mxGeometry>
        </mxCell>
        <mxCell id="wJRVuUg3xGgmKM1oo_Ec-176" value="" style="endArrow=classic;html=1;rounded=0;entryX=0;entryY=0.5;entryDx=0;entryDy=0;exitX=1;exitY=0.5;exitDx=0;exitDy=0;" edge="1" parent="1" source="wJRVuUg3xGgmKM1oo_Ec-13" target="wJRVuUg3xGgmKM1oo_Ec-44">
          <mxGeometry width="50" height="50" relative="1" as="geometry">
            <mxPoint x="429" y="490" as="sourcePoint" />
            <mxPoint x="370" y="340" as="targetPoint" />
          </mxGeometry>
        </mxCell>
      </root>
    </mxGraphModel>
  </diagram>
</mxfile>
